<?xml version="1.0" standalone="no"?>
<!DOCTYPE svg PUBLIC "-//W3C//DTD SVG 20010904//EN"
 "http://www.w3.org/TR/2001/REC-SVG-20010904/DTD/svg10.dtd">
<svg version="1.0" xmlns="http://www.w3.org/2000/svg"
 width="512.000000pt" height="512.000000pt" viewBox="0 0 512.000000 512.000000"
 preserveAspectRatio="xMidYMid meet">
<metadata>
Created by potrace 1.14, written by Peter Selinger 2001-2017
</metadata>
<g transform="translate(0.000000,512.000000) scale(0.100000,-0.100000)"
fill="#000000" stroke="none">
<path d="M3180 3174 c-1512 -1512 -1602 -1604 -1551 -1584 30 12 676 260 1435
552 760 291 1382 531 1383 531 4 5 344 2100 341 2103 -2 2 -726 -719 -1608
-1602z"/>
<path d="M979 1353 l-565 -205 -68 -424 c-38 -234 -66 -427 -64 -429 2 -2 289
281 638 630 349 349 633 635 630 634 -3 0 -259 -93 -571 -206z"/>
</g>
</svg>
